<?xml version="1.0" encoding="UTF-8"?>
<svg width="800px" height="600px" viewBox="0 0 800 600" version="1.1" xmlns="http://www.w3.org/2000/svg" xmlns:xlink="http://www.w3.org/1999/xlink">
    <!-- Generator: Sketch 49.3 (51167) - http://www.bohemiancoding.com/sketch -->
    <title>Artboard 2</title>
    <desc>Created with Sketch.</desc>
    <defs></defs>
    <g id="Artboard-2" stroke="none" stroke-width="1" fill="none" fill-rule="evenodd">
        <rect id="Rectangle-7" fill="#EA4C89" x="0" y="0" width="800" height="600"></rect>
        <path d="M499.1875,219.1875 C496.46875,222.825 475,250.35 427.6375,269.68125 C430.6375,275.79375 433.4875,282 436.13125,288.24375 L438.90625,294.8625 C481.525,289.5 523.9,298.0875 528.11875,298.9875 C527.8375,268.74375 517.01875,240.975 499.1875,219.16875 M370,175.6125 C373.525,180.35625 396.8125,212.04375 417.775,250.6125 C463.3375,233.55 482.65,207.61875 484.9375,204.3375 C462.30625,184.2375 432.55,172.03125 400,172.03125 C389.6875,172.03125 379.6,173.26875 370,175.59375 M274.5625,273.9375 C280.31875,274.03125 333.1,274.25625 393.0625,258.3375 C371.8,220.59375 348.90625,188.86875 345.53125,184.2375 C309.68125,201.15 282.90625,234.1875 274.58125,273.95625 M304.84375,385.89375 C307.73125,380.90625 342.90625,322.70625 408.98125,301.33125 C410.66875,300.76875 412.35625,300.28125 414.04375,299.79375 C410.81875,292.5375 407.29375,285.24375 403.6375,278.04375 C339.6625,297.20625 277.58125,296.41875 271.975,296.30625 L271.91875,300.20625 C271.91875,333.1125 284.3875,363.15 304.84375,385.89375 M450.08125,418.14375 C448.16875,406.89375 440.70625,367.70625 422.70625,320.98125 L421.88125,321.2625 C349.61875,346.4625 323.6875,396.58125 321.38125,401.2875 C343.09375,418.25625 370.4125,428.3625 400.01875,428.3625 C417.775,428.3625 434.70625,424.725 450.08125,418.1625 M526.525,320.56875 C522.1375,319.18125 486.86875,308.6625 446.725,315.075 C463.4875,361.14375 470.3125,398.64375 471.625,406.425 C500.36875,387 520.825,356.2125 526.5625,320.55 M400,450 C317.3125,450 250,382.6875 250,300 C250,217.275 317.3125,150 400,150 C482.725,150 550,217.275 550,300 C550,382.6875 482.725,450 400,450" id="dribbble-shape" fill="#FFFFFF" fill-rule="nonzero"></path>
    </g>
</svg>